<svg width="120" height="116" viewBox="0 0 120 116" fill="none" xmlns="http://www.w3.org/2000/svg">
<path opacity="0.5" d="M102 19.3333H18C13.2261 19.3333 8.64773 21.3702 5.27208 24.9959C1.89642 28.6216 0 33.5391 0 38.6666V56.1955L41.022 70.8888H78.978L120 56.1955V38.6666C120 33.5391 118.104 28.6216 114.728 24.9959C111.352 21.3702 106.774 19.3333 102 19.3333Z" fill="white"/>
<path d="M48 19.3333V12.8889H72V19.3333H84V12.8889C83.9968 9.47159 82.7315 6.19523 80.4818 3.77884C78.232 1.36244 75.1816 0.00341218 72 0H48C44.8184 0.00341218 41.768 1.36244 39.5182 3.77884C37.2685 6.19523 36.0032 9.47159 36 12.8889V19.3333H48ZM41.022 70.8889L0 56.1956V96.6667C0.00476529 101.793 1.90272 106.707 5.27734 110.332C8.65196 113.956 13.2276 115.995 18 116H102C106.772 115.995 111.348 113.956 114.723 110.332C118.097 106.707 119.995 101.793 120 96.6667V56.1956L78.978 70.8889H41.022Z" fill="white"/>
</svg>
