<svg width="93" height="68" viewBox="0 0 93 68" fill="none" xmlns="http://www.w3.org/2000/svg">
<path d="M9.96429 0C4.50054 0 0 4.607 0 10.2V57.8C0 63.393 4.50054 68 9.96429 68H83.0357C88.4995 68 93 63.393 93 57.8V10.2C93 4.607 88.4995 0 83.0357 0H9.96429ZM9.96429 6.8H83.0357C84.9156 6.8 86.3571 8.2756 86.3571 10.2V57.8C86.3571 59.7244 84.9156 61.2 83.0357 61.2H9.96429C8.08436 61.2 6.64286 59.7244 6.64286 57.8V10.2C6.64286 8.2756 8.08436 6.8 9.96429 6.8ZM29.8929 13.6C22.5857 13.6 16.6071 19.72 16.6071 27.2C16.6071 30.9842 18.1915 34.3978 20.656 36.8696C18.3951 38.4313 16.5417 40.5353 15.2571 42.9981C13.9725 45.461 13.2957 48.2081 13.2857 51H19.9286C19.9286 45.3288 24.3527 40.8 29.8929 40.8C35.433 40.8 39.8571 45.3288 39.8571 51H46.5C46.49 48.2081 45.8132 45.461 44.5286 42.9981C43.244 40.5353 41.3906 38.4313 39.1297 36.8696C41.5942 34.3978 43.1786 30.9876 43.1786 27.2C43.1786 19.72 37.2 13.6 29.8929 13.6ZM53.1429 17V23.8H79.7143V17H53.1429ZM29.8929 20.4C33.6029 20.4 36.5357 23.4022 36.5357 27.2C36.5357 30.9978 33.6029 34 29.8929 34C26.1828 34 23.25 30.9978 23.25 27.2C23.25 23.4022 26.1828 20.4 29.8929 20.4ZM53.1429 30.6V37.4H79.7143V30.6H53.1429ZM53.1429 44.2V51H69.75V44.2H53.1429Z" fill="#E1B208" fill-opacity="0.81"/>
</svg>
