<svg width="65" height="76" viewBox="0 0 65 76" fill="none" xmlns="http://www.w3.org/2000/svg">
<path d="M32.4045 21.6116C29.3722 21.6116 26.464 22.7995 24.3198 24.9141C22.1756 27.0287 20.971 29.8967 20.971 32.8872C20.971 35.8777 22.1756 38.7457 24.3198 40.8602C26.464 42.9748 29.3722 44.1628 32.4045 44.1628C35.4369 44.1628 38.345 42.9748 40.4892 40.8602C42.6334 38.7457 43.838 35.8777 43.838 32.8872C43.838 29.8967 42.6334 27.0287 40.4892 24.9141C38.345 22.7995 35.4369 21.6116 32.4045 21.6116ZM25.735 32.8872C25.735 31.1427 26.4377 29.4697 27.6884 28.2362C28.9392 27.0027 30.6357 26.3097 32.4045 26.3097C34.1734 26.3097 35.8698 27.0027 37.1206 28.2362C38.3714 29.4697 39.0741 31.1427 39.0741 32.8872C39.0741 34.6316 38.3714 36.3046 37.1206 37.5381C35.8698 38.7716 34.1734 39.4646 32.4045 39.4646C30.6357 39.4646 28.9392 38.7716 27.6884 37.5381C26.4377 36.3046 25.735 34.6316 25.735 32.8872ZM57.1676 52.6195L37.9441 72.7465C37.2314 73.4927 36.3715 74.0874 35.4173 74.4939C34.463 74.9003 33.4345 75.11 32.395 75.11C31.3555 75.11 30.327 74.9003 29.3727 74.4939C28.4185 74.0874 27.5586 73.4927 26.8459 72.7465L7.62239 52.6195H7.6948L7.66241 52.5819L7.62239 52.5349C2.68825 46.78 -0.013066 39.4839 4.75209e-05 31.9476C4.75209e-05 14.3031 14.5035 0 32.395 0C50.2865 0 64.79 14.3031 64.79 31.9476C64.8031 39.4839 62.1018 46.78 57.1676 52.5349L57.1276 52.5819L57.0952 52.6195H57.1676ZM53.4651 49.577C57.7109 44.6584 60.0374 38.407 60.026 31.9476C60.026 16.8984 47.6549 4.69817 32.395 4.69817C17.1351 4.69817 4.76401 16.8984 4.76401 31.9476C4.75209 38.4071 7.07867 44.6587 11.3249 49.577L11.9119 50.2591L30.3141 69.5235C30.5813 69.8034 30.9038 70.0264 31.2617 70.1788C31.6195 70.3312 32.0052 70.4098 32.395 70.4098C32.7848 70.4098 33.1705 70.3312 33.5283 70.1788C33.8862 70.0264 34.2087 69.8034 34.4759 69.5235L52.8781 50.2591L53.4651 49.577Z" fill="#E1B208"/>
</svg>
