<svg width="83" height="66" viewBox="0 0 83 66" fill="none" xmlns="http://www.w3.org/2000/svg">
<path d="M8.3 66C6.01751 66 4.06286 65.1915 2.43606 63.5745C0.809256 61.9575 -0.00275962 60.016 7.04584e-06 57.75V8.25C7.04584e-06 5.98126 0.813407 4.03838 2.44021 2.42138C4.06701 0.804381 6.02027 -0.002743 8.3 7.0034e-06H74.7C76.9825 7.0034e-06 78.9371 0.808506 80.5639 2.42551C82.1907 4.04251 83.0028 5.98401 83 8.25V57.75C83 60.0187 82.1866 61.9616 80.5598 63.5786C78.933 65.1956 76.9797 66.0027 74.7 66H8.3ZM41.5 37.125L8.3 16.5V57.75H74.7V16.5L41.5 37.125ZM41.5 28.875L74.7 8.25H8.3L41.5 28.875ZM8.3 16.5V8.25V57.75V16.5Z" fill="#E1B208"/>
</svg>
