<svg width="120" height="116" viewBox="0 0 120 116" fill="none" xmlns="http://www.w3.org/2000/svg">
<path d="M50.6667 85.0667L97.6667 39.6333L88.3333 30.6111L50.6667 67.0222L31.6667 48.6556L22.3333 57.6778L50.6667 85.0667ZM13.3333 116C9.66668 116 6.52668 114.737 3.91334 112.211C1.30001 109.684 -0.00443312 106.651 1.13186e-05 103.111V12.8889C1.13186e-05 9.34445 1.30668 6.30912 3.92001 3.7829C6.53334 1.25668 9.67112 -0.00428535 13.3333 1.09413e-05H106.667C110.333 1.09413e-05 113.473 1.26312 116.087 3.78934C118.7 6.31557 120.004 9.34875 120 12.8889V103.111C120 106.656 118.693 109.691 116.08 112.217C113.467 114.743 110.329 116.004 106.667 116H13.3333Z" fill="white"/>
</svg>
