<svg width="83" height="83" viewBox="0 0 83 83" fill="none" xmlns="http://www.w3.org/2000/svg">
<path d="M41.5 83C18.5529 83 0 64.4471 0 41.5C0 18.5529 18.5529 0 41.5 0C64.4471 0 83 18.5529 83 41.5C83 64.4471 64.2029 83 41.5 83ZM41.5 4.88235C21.2382 4.88235 4.88235 21.2382 4.88235 41.5C4.88235 61.7618 21.2382 78.1176 41.5 78.1176C61.7618 78.1176 78.1176 61.7618 78.1176 41.5C78.1176 21.2382 61.5176 4.88235 41.5 4.88235Z" fill="#E1B208"/>
<path d="M17.5766 71.5264L13.1824 69.5735C14.403 66.6441 18.3089 64.9352 22.4589 62.9823C26.6089 61.0294 31.7354 58.8323 31.7354 56.147V52.4852C30.2707 51.2647 27.8295 48.5794 27.3413 44.6735C26.1207 43.4529 24.1677 41.2558 24.1677 38.3264C24.1677 36.6176 24.9001 35.1529 25.3883 34.1764C24.9001 32.2235 24.4118 28.5617 24.4118 25.6323C24.4118 16.1117 31.003 9.76465 41.5001 9.76465C44.4295 9.76465 48.0913 10.497 50.0442 12.6941C54.6824 13.6705 58.5883 19.0411 58.5883 25.6323C58.5883 29.7823 57.856 33.1999 57.3677 34.9088C57.856 35.6411 58.3442 36.8617 58.3442 38.3264C58.3442 41.4999 56.6354 43.697 55.1707 44.6735C54.6824 48.5794 52.4854 51.0205 51.0207 52.2411V56.147C51.0207 58.3441 55.4148 60.0529 59.3207 61.5176C63.9589 63.2264 68.8413 65.1794 70.5501 69.0852L65.9118 70.7941C65.1795 68.8411 61.2736 67.3764 57.6119 66.1558C52.2413 64.2029 46.1383 62.0058 46.1383 56.3911V50.0441L47.3589 49.3117C47.3589 49.3117 50.2883 47.3588 50.2883 43.4529V41.7441L51.753 41.0117C51.9971 41.0117 53.2177 40.2794 53.2177 38.3264C53.2177 37.8382 52.7295 37.1058 52.4854 36.8617L51.5089 35.8852L51.9971 34.6647C51.9971 34.6647 53.2177 30.7588 53.2177 25.8764C53.2177 21.2382 50.5324 17.8205 48.3354 17.8205H46.8707L46.1383 16.5999C46.1383 15.6235 44.4295 14.647 41.5001 14.647C33.9324 14.647 29.2942 18.797 29.2942 25.6323C29.2942 28.8058 30.5148 34.1764 30.5148 34.1764L30.7589 35.397L29.7824 36.6176C29.5383 36.6176 29.0501 37.3499 29.0501 38.3264C29.0501 39.547 30.5148 41.0117 31.2471 41.4999L32.2236 42.2323V43.4529C32.2236 47.1147 35.3971 49.0676 35.3971 49.3117L36.6177 50.0441V56.3911C36.6177 62.2499 30.2707 65.1794 24.4118 67.6205C21.7266 68.597 18.0648 70.3058 17.5766 71.5264Z" fill="#E1B208"/>
</svg>
